<svg width="43" height="36" viewBox="0 0 43 36" fill="none" xmlns="http://www.w3.org/2000/svg">
<path d="M35.579 4.5H33.808V3C33.808 2.175 33.011 1.5 32.0369 1.5C31.0628 1.5 30.2659 2.175 30.2659 3V4.5H12.5553V3C12.5553 2.175 11.7584 1.5 10.7843 1.5C9.8102 1.5 9.01323 2.175 9.01323 3V4.5H7.24218C5.29402 4.5 3.70007 5.85 3.70007 7.5V31.5C3.70007 33.15 5.29402 34.5 7.24218 34.5H35.579C37.5272 34.5 39.1211 33.15 39.1211 31.5V7.5C39.1211 5.85 37.5272 4.5 35.579 4.5ZM33.808 31.5H9.01323C8.03915 31.5 7.24218 30.825 7.24218 30V12H35.579V30C35.579 30.825 34.782 31.5 33.808 31.5Z" fill="#D9D9D9"/>
</svg>
